<svg xmlns="http://www.w3.org/2000/svg" fill="none" viewBox="0 0 987 1002">
  <path fill="#fff"
    d="M422.707 41.494c43.717-25.624 97.869-25.624 141.586 0l287.384 168.442c42.868 25.127 69.207 71.093 69.207 120.782v340.564c0 49.689-26.339 95.655-69.207 120.782L564.293 960.506c-43.717 25.624-97.869 25.624-141.586 0L135.323 792.064c-42.868-25.127-69.207-71.093-69.207-120.782V330.718c0-49.689 26.339-95.655 69.207-120.782L422.707 41.494Z" />
  <path fill="#000" fill-rule="evenodd"
    d="M493 811c171.208 0 310-138.792 310-310S664.208 191 493 191c-146.095 0-268.586 101.062-301.377 237.089-1.479 6.133 3.261 11.911 9.569 11.911H356c5.523 0 10 4.477 10 10v103c0 5.523-4.477 10-10 10H201.435c-6.322 0-11.065 5.801-9.562 11.942C225.033 710.449 347.274 811 493 811Z"
    clip-rule="evenodd" />
  <path fill="#fff"
    d="M648 501c0 85.604-69.396 155-155 155s-155-69.396-155-155 69.396-155 155-155 155 69.396 155 155Z" />
  <path fill="#000"
    d="M568 501c0 41.421-33.579 75-75 75s-75-33.579-75-75 33.579-75 75-75 75 33.579 75 75Z" />
</svg>